# MagicaVoxel @ Ephtracy

# group
o 

# material
mtllib GoblinHead.mtl
usemtl palette

# normals
vn -1 0 0
vn 1 0 0
vn 0 0 1
vn 0 0 -1
vn 0 -1 0
vn 0 1 0

# texcoords
vt 0.927734 0.5
vt 0.939453 0.5
vt 0.943359 0.5
vt 0.951172 0.5
vt 0.974609 0.5

# verts
v -0.9 0 0
v -0.9 0 -0.2
v -0.9 0.1 0
v -0.9 0.1 -0.2
v -0.8 -0.1 0.1
v -0.8 -0.1 -0.1
v -0.8 0 0.1
v -0.8 0 0
v -0.8 0 -0.1
v -0.7 -0.2 0
v -0.7 -0.2 -0.1
v -0.7 -0.1 0
v -0.7 -0.1 -0.1
v -0.7 0 0.1
v -0.7 0 0
v -0.7 0.1 0.1
v -0.7 0.1 0
v -0.5 -0.3 0.3
v -0.5 -0.3 -0.3
v -0.5 -0.3 -0.5
v -0.5 -0.2 0
v -0.5 -0.2 -0.1
v -0.5 -0.2 -0.3
v -0.5 -0.2 -0.4
v -0.5 -0.1 0.1
v -0.5 -0.1 0
v -0.5 -0.1 -0.1
v -0.5 0 -0.1
v -0.5 0 -0.2
v -0.5 0.1 0.1
v -0.5 0.1 -0.2
v -0.5 0.1 -0.4
v -0.5 0.1 -0.5
v -0.5 0.2 0.3
v -0.5 0.2 0.2
v -0.5 0.2 -0.4
v -0.5 0.2 -0.5
v -0.5 0.3 0.2
v -0.5 0.3 -0.4
v -0.4 -0.4 0.3
v -0.4 -0.4 -0.1
v -0.4 -0.4 -0.3
v -0.4 -0.4 -0.4
v -0.4 -0.4 -0.5
v -0.4 -0.3 0.4
v -0.4 -0.3 0.3
v -0.4 -0.3 -0.1
v -0.4 -0.3 -0.3
v -0.4 -0.3 -0.4
v -0.4 -0.3 -0.5
v -0.4 0.1 0.4
v -0.4 0.1 0.3
v -0.4 0.2 0.4
v -0.4 0.2 0.3
v -0.4 0.2 0.2
v -0.4 0.2 -0.4
v -0.4 0.2 -0.5
v -0.4 0.3 0.3
v -0.4 0.3 0.2
v -0.4 0.3 -0.3
v -0.4 0.3 -0.4
v -0.4 0.3 -0.5
v -0.4 0.4 0.2
v -0.4 0.4 -0.3
v -0.3 0.2 0.4
v -0.3 0.2 0.3
v -0.3 0.3 0.4
v -0.3 0.3 0.3
v -0.3 0.3 0.2
v -0.3 0.3 -0.3
v -0.3 0.3 -0.4
v -0.3 0.4 0.3
v -0.3 0.4 0.2
v -0.3 0.4 -0.3
v -0.3 0.4 -0.4
v 0.3 0.2 0.4
v 0.3 0.2 0.3
v 0.3 0.3 0.4
v 0.3 0.3 0.3
v 0.3 0.3 0.2
v 0.3 0.3 -0.3
v 0.3 0.3 -0.4
v 0.3 0.4 0.3
v 0.3 0.4 0.2
v 0.3 0.4 -0.3
v 0.3 0.4 -0.4
v 0.4 -0.4 0.3
v 0.4 -0.4 0.1
v 0.4 -0.4 -0.3
v 0.4 -0.4 -0.5
v 0.4 -0.3 0.4
v 0.4 -0.3 0.3
v 0.4 -0.3 0.1
v 0.4 -0.3 0
v 0.4 -0.3 -0.3
v 0.4 -0.3 -0.5
v 0.4 0 0.4
v 0.4 0 0.3
v 0.4 0.2 0.4
v 0.4 0.2 0.3
v 0.4 0.2 0.2
v 0.4 0.2 -0.4
v 0.4 0.2 -0.5
v 0.4 0.3 0.3
v 0.4 0.3 0.2
v 0.4 0.3 -0.3
v 0.4 0.3 -0.4
v 0.4 0.3 -0.5
v 0.4 0.4 0.2
v 0.4 0.4 -0.3
v 0.5 -0.3 0.3
v 0.5 -0.3 0.1
v 0.5 -0.3 0
v 0.5 -0.3 -0.5
v 0.5 -0.2 0.1
v 0.5 -0.2 0
v 0.5 -0.2 -0.1
v 0.5 -0.1 0.1
v 0.5 -0.1 0
v 0.5 -0.1 -0.1
v 0.5 0 -0.1
v 0.5 0 -0.2
v 0.5 0.1 0.1
v 0.5 0.1 -0.2
v 0.5 0.2 0.3
v 0.5 0.2 0.2
v 0.5 0.2 -0.4
v 0.5 0.2 -0.5
v 0.5 0.3 0.2
v 0.5 0.3 -0.4
v 0.7 -0.2 0
v 0.7 -0.2 -0.1
v 0.7 -0.1 0
v 0.7 -0.1 -0.1
v 0.7 0 0.1
v 0.7 0 0
v 0.7 0.1 0.1
v 0.7 0.1 0
v 0.8 -0.1 0.1
v 0.8 -0.1 -0.1
v 0.8 0 0.1
v 0.8 0 0
v 0.8 0 -0.1
v 0.9 0 0
v 0.9 0 -0.2
v 0.9 0.1 0
v 0.9 0.1 -0.2
v -0.4 -0.3 0.4
v -0.4 0.1 0.4
v -0.4 0.2 0.4
v -0.3 0.2 0.4
v -0.3 0.3 0.4
v -0.2 0.1 0.4
v -0.2 0.3 0.4
v -0.1 0.2 0.4
v -0.1 0.3 0.4
v 0 0.2 0.4
v 0 0.3 0.4
v 0.1 -0.3 0.4
v 0.1 -0.2 0.4
v 0.3 -0.2 0.4
v 0.3 0 0.4
v 0.3 0.2 0.4
v 0.3 0.3 0.4
v 0.4 -0.3 0.4
v 0.4 0 0.4
v 0.4 0.2 0.4
v -0.5 -0.3 0.3
v -0.5 0.2 0.3
v -0.4 -0.4 0.3
v -0.4 -0.3 0.3
v -0.4 0.1 0.3
v -0.4 0.2 0.3
v -0.4 0.3 0.3
v -0.3 0.2 0.3
v -0.3 0.3 0.3
v -0.3 0.4 0.3
v -0.2 0.3 0.3
v -0.1 -0.4 0.3
v -0.1 -0.3 0.3
v -0.1 0.3 0.3
v 0 0.3 0.3
v 0.1 -0.3 0.3
v 0.2 -0.4 0.3
v 0.2 -0.3 0.3
v 0.3 0.2 0.3
v 0.3 0.3 0.3
v 0.3 0.4 0.3
v 0.4 -0.4 0.3
v 0.4 -0.3 0.3
v 0.4 0 0.3
v 0.4 0.2 0.3
v 0.4 0.3 0.3
v 0.5 -0.3 0.3
v 0.5 0.2 0.3
v -0.5 0.2 0.2
v -0.5 0.3 0.2
v -0.4 0.2 0.2
v -0.4 0.3 0.2
v -0.4 0.4 0.2
v -0.3 0.3 0.2
v -0.3 0.4 0.2
v 0.3 0.3 0.2
v 0.3 0.4 0.2
v 0.4 0.2 0.2
v 0.4 0.3 0.2
v 0.4 0.4 0.2
v 0.5 0.2 0.2
v 0.5 0.3 0.2
v -0.8 -0.1 0.1
v -0.8 0 0.1
v -0.7 0 0.1
v -0.7 0.1 0.1
v -0.5 -0.1 0.1
v -0.5 0.1 0.1
v 0.5 -0.1 0.1
v 0.5 0.1 0.1
v 0.7 0 0.1
v 0.7 0.1 0.1
v 0.8 -0.1 0.1
v 0.8 0 0.1
v -0.9 0 0
v -0.9 0.1 0
v -0.8 0 0
v -0.7 -0.2 0
v -0.7 -0.1 0
v -0.7 0 0
v -0.7 0.1 0
v -0.5 -0.2 0
v -0.5 -0.1 0
v 0.5 -0.2 0
v 0.5 -0.1 0
v 0.7 -0.2 0
v 0.7 -0.1 0
v 0.7 0 0
v 0.7 0.1 0
v 0.8 0 0
v 0.9 0 0
v 0.9 0.1 0
v -0.8 -0.1 -0.1
v -0.8 0 -0.1
v -0.7 -0.2 -0.1
v -0.7 -0.1 -0.1
v -0.7 0 -0.1
v -0.5 -0.2 -0.1
v -0.5 -0.1 -0.1
v -0.5 0 -0.1
v 0.5 -0.2 -0.1
v 0.5 -0.1 -0.1
v 0.5 0 -0.1
v 0.7 -0.2 -0.1
v 0.7 -0.1 -0.1
v 0.7 0 -0.1
v 0.8 -0.1 -0.1
v 0.8 0 -0.1
v -0.9 0 -0.2
v -0.9 0.1 -0.2
v -0.5 0 -0.2
v -0.5 0.1 -0.2
v 0.5 0 -0.2
v 0.5 0.1 -0.2
v 0.9 0 -0.2
v 0.9 0.1 -0.2
v -0.4 0.3 -0.3
v -0.4 0.4 -0.3
v -0.3 0.3 -0.3
v -0.3 0.4 -0.3
v 0.3 0.3 -0.3
v 0.3 0.4 -0.3
v 0.4 0.3 -0.3
v 0.4 0.4 -0.3
v -0.5 0.2 -0.4
v -0.5 0.3 -0.4
v -0.4 0.2 -0.4
v -0.4 0.3 -0.4
v -0.3 0.3 -0.4
v -0.3 0.4 -0.4
v -0.1 0.3 -0.4
v 0.1 0.3 -0.4
v 0.3 0.3 -0.4
v 0.3 0.4 -0.4
v 0.4 0.2 -0.4
v 0.4 0.3 -0.4
v 0.5 0.2 -0.4
v 0.5 0.3 -0.4
v -0.5 -0.3 -0.5
v -0.5 0.1 -0.5
v -0.5 0.2 -0.5
v -0.4 -0.4 -0.5
v -0.4 -0.3 -0.5
v -0.4 -0.2 -0.5
v -0.4 0.1 -0.5
v -0.4 0.2 -0.5
v -0.4 0.3 -0.5
v -0.3 -0.4 -0.5
v -0.3 -0.2 -0.5
v -0.3 -0.1 -0.5
v -0.2 -0.2 -0.5
v -0.2 -0.1 -0.5
v -0.2 0.1 -0.5
v -0.2 0.2 -0.5
v -0.1 0 -0.5
v -0.1 0.1 -0.5
v -0.1 0.2 -0.5
v -0.1 0.3 -0.5
v 0.1 -0.2 -0.5
v 0.1 0 -0.5
v 0.1 0.1 -0.5
v 0.1 0.2 -0.5
v 0.1 0.3 -0.5
v 0.2 -0.2 -0.5
v 0.2 -0.1 -0.5
v 0.2 0 -0.5
v 0.2 0.1 -0.5
v 0.2 0.2 -0.5
v 0.3 -0.2 -0.5
v 0.3 -0.1 -0.5
v 0.4 -0.4 -0.5
v 0.4 -0.3 -0.5
v 0.4 0.2 -0.5
v 0.4 0.3 -0.5
v 0.5 -0.3 -0.5
v 0.5 0.2 -0.5
v -0.4 -0.4 0.3
v -0.1 -0.4 0.3
v 0.2 -0.4 0.3
v 0.4 -0.4 0.3
v -0.2 -0.4 0.2
v -0.1 -0.4 0.2
v 0 -0.4 0.2
v 0.2 -0.4 0.2
v -0.3 -0.4 0.1
v -0.2 -0.4 0.1
v -0.1 -0.4 0.1
v 0 -0.4 0.1
v 0.3 -0.4 0.1
v 0.4 -0.4 0.1
v -0.2 -0.4 0
v -0.1 -0.4 0
v -0.4 -0.4 -0.1
v -0.3 -0.4 -0.1
v -0.2 -0.4 -0.1
v -0.4 -0.4 -0.3
v -0.3 -0.4 -0.3
v 0.3 -0.4 -0.3
v 0.4 -0.4 -0.3
v -0.4 -0.4 -0.4
v -0.3 -0.4 -0.4
v -0.4 -0.4 -0.5
v -0.3 -0.4 -0.5
v 0.4 -0.4 -0.5
v -0.4 -0.3 0.4
v 0.1 -0.3 0.4
v 0.4 -0.3 0.4
v -0.5 -0.3 0.3
v -0.4 -0.3 0.3
v -0.1 -0.3 0.3
v 0.1 -0.3 0.3
v 0.2 -0.3 0.3
v 0.4 -0.3 0.3
v 0.5 -0.3 0.3
v 0.4 -0.3 0.1
v 0.5 -0.3 0.1
v 0.4 -0.3 0
v 0.5 -0.3 0
v -0.4 -0.3 -0.1
v -0.5 -0.3 -0.3
v -0.4 -0.3 -0.3
v 0.4 -0.3 -0.3
v -0.4 -0.3 -0.4
v -0.5 -0.3 -0.5
v -0.4 -0.3 -0.5
v 0.4 -0.3 -0.5
v 0.5 -0.3 -0.5
v -0.7 -0.2 0
v -0.5 -0.2 0
v 0.5 -0.2 0
v 0.7 -0.2 0
v -0.7 -0.2 -0.1
v -0.5 -0.2 -0.1
v 0.5 -0.2 -0.1
v 0.7 -0.2 -0.1
v -0.8 -0.1 0.1
v -0.5 -0.1 0.1
v 0.5 -0.1 0.1
v 0.8 -0.1 0.1
v -0.7 -0.1 0
v -0.5 -0.1 0
v 0.5 -0.1 0
v 0.7 -0.1 0
v -0.8 -0.1 -0.1
v -0.7 -0.1 -0.1
v 0.7 -0.1 -0.1
v 0.8 -0.1 -0.1
v -0.9 0 0
v -0.8 0 0
v 0.8 0 0
v 0.9 0 0
v -0.8 0 -0.1
v -0.7 0 -0.1
v -0.5 0 -0.1
v 0.5 0 -0.1
v 0.7 0 -0.1
v 0.8 0 -0.1
v -0.9 0 -0.2
v -0.5 0 -0.2
v 0.5 0 -0.2
v 0.9 0 -0.2
v -0.8 0 0.1
v -0.7 0 0.1
v 0.7 0 0.1
v 0.8 0 0.1
v -0.8 0 0
v -0.7 0 0
v 0.7 0 0
v 0.8 0 0
v -0.7 0.1 0.1
v -0.5 0.1 0.1
v 0.5 0.1 0.1
v 0.7 0.1 0.1
v -0.9 0.1 0
v -0.7 0.1 0
v 0.7 0.1 0
v 0.9 0.1 0
v -0.9 0.1 -0.2
v -0.5 0.1 -0.2
v 0.5 0.1 -0.2
v 0.9 0.1 -0.2
v -0.4 0.2 0.4
v -0.3 0.2 0.4
v 0.3 0.2 0.4
v 0.4 0.2 0.4
v -0.5 0.2 0.3
v -0.4 0.2 0.3
v -0.3 0.2 0.3
v 0.3 0.2 0.3
v 0.4 0.2 0.3
v 0.5 0.2 0.3
v -0.5 0.2 0.2
v -0.4 0.2 0.2
v 0.4 0.2 0.2
v 0.5 0.2 0.2
v -0.5 0.2 -0.4
v -0.4 0.2 -0.4
v 0.4 0.2 -0.4
v 0.5 0.2 -0.4
v -0.5 0.2 -0.5
v -0.4 0.2 -0.5
v 0.4 0.2 -0.5
v 0.5 0.2 -0.5
v -0.3 0.3 0.4
v -0.2 0.3 0.4
v -0.1 0.3 0.4
v 0 0.3 0.4
v 0.3 0.3 0.4
v -0.4 0.3 0.3
v -0.3 0.3 0.3
v -0.2 0.3 0.3
v -0.1 0.3 0.3
v 0 0.3 0.3
v 0.3 0.3 0.3
v 0.4 0.3 0.3
v -0.5 0.3 0.2
v -0.4 0.3 0.2
v -0.3 0.3 0.2
v 0.3 0.3 0.2
v 0.4 0.3 0.2
v 0.5 0.3 0.2
v -0.4 0.3 -0.3
v -0.3 0.3 -0.3
v 0.3 0.3 -0.3
v 0.4 0.3 -0.3
v -0.5 0.3 -0.4
v -0.4 0.3 -0.4
v -0.3 0.3 -0.4
v -0.1 0.3 -0.4
v 0.1 0.3 -0.4
v 0.3 0.3 -0.4
v 0.4 0.3 -0.4
v 0.5 0.3 -0.4
v -0.4 0.3 -0.5
v -0.1 0.3 -0.5
v 0.1 0.3 -0.5
v 0.4 0.3 -0.5
v -0.3 0.4 0.3
v 0.3 0.4 0.3
v -0.4 0.4 0.2
v -0.3 0.4 0.2
v 0.3 0.4 0.2
v 0.4 0.4 0.2
v -0.4 0.4 -0.3
v -0.3 0.4 -0.3
v 0.3 0.4 -0.3
v 0.4 0.4 -0.3
v -0.3 0.4 -0.4
v 0.3 0.4 -0.4

# faces
f 3/5/1 2/5/1 1/5/1
f 4/5/1 2/5/1 3/5/1
f 7/5/1 6/5/1 5/5/1
f 8/5/1 6/5/1 7/5/1
f 9/5/1 6/5/1 8/5/1
f 12/5/1 11/5/1 10/5/1
f 13/5/1 11/5/1 12/5/1
f 16/5/1 15/5/1 14/5/1
f 17/5/1 15/5/1 16/5/1
f 21/5/1 19/5/1 18/5/1
f 22/5/1 19/5/1 21/5/1
f 23/1/1 20/1/1 19/1/1
f 23/5/1 19/5/1 22/5/1
f 24/1/1 20/1/1 23/1/1
f 25/5/1 21/5/1 18/5/1
f 26/5/1 21/5/1 25/5/1
f 27/5/1 24/5/1 23/5/1
f 27/5/1 23/5/1 22/5/1
f 28/5/1 24/5/1 27/5/1
f 29/5/1 24/5/1 28/5/1
f 30/5/1 25/5/1 18/5/1
f 31/5/1 24/5/1 29/5/1
f 32/1/1 20/1/1 24/1/1
f 32/5/1 24/5/1 31/5/1
f 33/1/1 20/1/1 32/1/1
f 34/5/1 31/5/1 30/5/1
f 34/5/1 30/5/1 18/5/1
f 34/5/1 33/5/1 32/5/1
f 34/5/1 32/5/1 31/5/1
f 35/5/1 33/5/1 34/5/1
f 36/5/1 33/5/1 35/5/1
f 37/5/1 33/5/1 36/5/1
f 38/5/1 36/5/1 35/5/1
f 39/5/1 36/5/1 38/5/1
f 46/5/1 41/5/1 40/5/1
f 47/1/1 42/1/1 41/1/1
f 47/5/1 41/5/1 46/5/1
f 48/5/1 43/5/1 42/5/1
f 48/1/1 42/1/1 47/1/1
f 49/1/1 44/1/1 43/1/1
f 49/5/1 43/5/1 48/5/1
f 50/1/1 44/1/1 49/1/1
f 51/5/1 46/5/1 45/5/1
f 52/5/1 46/5/1 51/5/1
f 53/1/1 52/1/1 51/1/1
f 54/1/1 52/1/1 53/1/1
f 58/5/1 55/5/1 54/5/1
f 59/5/1 55/5/1 58/5/1
f 61/5/1 57/5/1 56/5/1
f 62/5/1 57/5/1 61/5/1
f 63/5/1 60/5/1 59/5/1
f 64/5/1 60/5/1 63/5/1
f 67/1/1 66/1/1 65/1/1
f 68/1/1 66/1/1 67/1/1
f 72/5/1 69/5/1 68/5/1
f 73/5/1 69/5/1 72/5/1
f 74/5/1 71/5/1 70/5/1
f 75/5/1 71/5/1 74/5/1
f 76/5/2 77/5/2 78/5/2
f 78/5/2 77/5/2 79/5/2
f 79/5/2 80/5/2 83/5/2
f 83/5/2 80/5/2 84/5/2
f 81/5/2 82/5/2 85/5/2
f 85/5/2 82/5/2 86/5/2
f 87/5/2 88/5/2 92/5/2
f 88/1/2 89/1/2 93/1/2
f 92/5/2 88/5/2 93/5/2
f 93/1/2 89/1/2 94/1/2
f 89/5/2 90/5/2 95/5/2
f 94/1/2 89/1/2 95/1/2
f 95/5/2 90/5/2 96/5/2
f 91/1/2 92/1/2 97/1/2
f 97/1/2 92/1/2 98/1/2
f 97/5/2 98/5/2 99/5/2
f 99/5/2 98/5/2 100/5/2
f 100/5/2 101/5/2 104/5/2
f 104/5/2 101/5/2 105/5/2
f 102/5/2 103/5/2 107/5/2
f 107/5/2 103/5/2 108/5/2
f 105/5/2 106/5/2 109/5/2
f 109/5/2 106/5/2 110/5/2
f 111/5/2 112/5/2 115/5/2
f 112/1/2 113/1/2 115/1/2
f 113/5/2 114/5/2 116/5/2
f 115/1/2 113/1/2 116/1/2
f 116/5/2 114/5/2 117/5/2
f 111/5/2 115/5/2 118/5/2
f 115/5/2 116/5/2 118/5/2
f 118/5/2 116/5/2 119/5/2
f 117/5/2 114/5/2 120/5/2
f 120/5/2 114/5/2 121/5/2
f 121/5/2 114/5/2 122/5/2
f 111/5/2 118/5/2 123/5/2
f 122/5/2 114/5/2 124/5/2
f 111/5/2 123/5/2 125/5/2
f 123/5/2 124/5/2 125/5/2
f 125/5/2 124/5/2 126/5/2
f 124/5/2 114/5/2 127/5/2
f 126/5/2 124/5/2 127/5/2
f 127/5/2 114/5/2 128/5/2
f 126/5/2 127/5/2 129/5/2
f 129/5/2 127/5/2 130/5/2
f 131/5/2 132/5/2 133/5/2
f 133/5/2 132/5/2 134/5/2
f 135/5/2 136/5/2 137/5/2
f 137/5/2 136/5/2 138/5/2
f 139/5/2 140/5/2 141/5/2
f 141/5/2 140/5/2 142/5/2
f 142/5/2 140/5/2 143/5/2
f 144/5/2 145/5/2 146/5/2
f 146/5/2 145/5/2 147/5/2
f 151/1/3 150/1/3 149/1/3
f 153/5/3 149/5/3 148/5/3
f 153/1/3 152/1/3 151/1/3
f 153/1/3 151/1/3 149/1/3
f 154/1/3 152/1/3 153/1/3
f 155/5/3 154/5/3 153/5/3
f 156/5/3 154/5/3 155/5/3
f 157/5/3 155/5/3 153/5/3
f 157/1/3 156/1/3 155/1/3
f 158/1/3 156/1/3 157/1/3
f 159/5/3 153/5/3 148/5/3
f 159/5/3 157/5/3 153/5/3
f 159/5/3 158/5/3 157/5/3
f 160/5/3 158/5/3 159/5/3
f 161/1/3 160/1/3 159/1/3
f 161/5/3 158/5/3 160/5/3
f 162/5/3 158/5/3 161/5/3
f 163/5/3 158/5/3 162/5/3
f 164/5/3 158/5/3 163/5/3
f 165/1/3 161/1/3 159/1/3
f 165/1/3 162/1/3 161/1/3
f 166/5/3 163/5/3 162/5/3
f 166/1/3 162/1/3 165/1/3
f 167/5/3 163/5/3 166/5/3
f 171/5/3 169/5/3 168/5/3
f 172/5/3 169/5/3 171/5/3
f 173/5/3 169/5/3 172/5/3
f 175/5/3 174/5/3 173/5/3
f 176/5/3 174/5/3 175/5/3
f 178/5/3 177/5/3 176/5/3
f 179/5/3 171/5/3 170/5/3
f 180/5/3 171/5/3 179/5/3
f 181/5/3 177/5/3 178/5/3
f 182/5/3 177/5/3 181/5/3
f 183/1/3 180/1/3 179/1/3
f 184/1/3 183/1/3 179/1/3
f 185/1/3 183/1/3 184/1/3
f 187/5/3 177/5/3 182/5/3
f 188/5/3 177/5/3 187/5/3
f 189/5/3 185/5/3 184/5/3
f 190/5/3 185/5/3 189/5/3
f 192/5/3 187/5/3 186/5/3
f 193/5/3 187/5/3 192/5/3
f 194/5/3 191/5/3 190/5/3
f 194/5/3 192/5/3 191/5/3
f 195/5/3 192/5/3 194/5/3
f 198/5/3 197/5/3 196/5/3
f 199/5/3 197/5/3 198/5/3
f 201/5/3 200/5/3 199/5/3
f 202/5/3 200/5/3 201/5/3
f 206/5/3 204/5/3 203/5/3
f 207/5/3 204/5/3 206/5/3
f 208/5/3 206/5/3 205/5/3
f 209/5/3 206/5/3 208/5/3
f 212/5/3 211/5/3 210/5/3
f 214/5/3 212/5/3 210/5/3
f 214/5/3 213/5/3 212/5/3
f 215/5/3 213/5/3 214/5/3
f 218/5/3 217/5/3 216/5/3
f 219/5/3 217/5/3 218/5/3
f 220/5/3 218/5/3 216/5/3
f 221/5/3 218/5/3 220/5/3
f 224/5/3 223/5/3 222/5/3
f 227/5/3 223/5/3 224/5/3
f 228/5/3 223/5/3 227/5/3
f 229/5/3 226/5/3 225/5/3
f 230/5/3 226/5/3 229/5/3
f 233/5/3 232/5/3 231/5/3
f 234/5/3 232/5/3 233/5/3
f 237/5/3 236/5/3 235/5/3
f 238/5/3 236/5/3 237/5/3
f 239/5/3 236/5/3 238/5/3
f 240/5/4 241/5/4 243/5/4
f 243/5/4 241/5/4 244/5/4
f 242/5/4 243/5/4 245/5/4
f 243/3/4 244/3/4 246/3/4
f 245/5/4 243/5/4 246/5/4
f 246/3/4 244/3/4 247/3/4
f 248/5/4 249/5/4 251/5/4
f 249/3/4 250/3/4 252/3/4
f 251/5/4 249/5/4 252/5/4
f 252/3/4 250/3/4 253/3/4
f 252/5/4 253/5/4 254/5/4
f 254/5/4 253/5/4 255/5/4
f 256/5/4 257/5/4 258/5/4
f 258/5/4 257/5/4 259/5/4
f 260/5/4 261/5/4 262/5/4
f 262/5/4 261/5/4 263/5/4
f 264/5/4 265/5/4 266/5/4
f 266/5/4 265/5/4 267/5/4
f 268/5/4 269/5/4 270/5/4
f 270/5/4 269/5/4 271/5/4
f 272/5/4 273/5/4 274/5/4
f 274/5/4 273/5/4 275/5/4
f 276/5/4 277/5/4 278/5/4
f 278/5/4 277/5/4 279/5/4
f 279/5/4 277/5/4 280/5/4
f 280/5/4 277/5/4 281/5/4
f 282/5/4 283/5/4 284/5/4
f 284/5/4 283/5/4 285/5/4
f 286/1/4 287/1/4 290/1/4
f 290/1/4 287/1/4 291/1/4
f 287/5/4 288/5/4 292/5/4
f 291/1/4 287/1/4 292/1/4
f 292/5/4 288/5/4 293/5/4
f 290/1/4 291/1/4 295/1/4
f 289/1/4 290/1/4 295/1/4
f 293/5/4 294/5/4 296/5/4
f 295/1/4 291/1/4 296/1/4
f 292/5/4 293/5/4 296/5/4
f 291/5/4 292/5/4 296/5/4
f 296/5/4 294/5/4 297/5/4
f 295/5/4 296/5/4 298/5/4
f 296/2/4 297/2/4 298/2/4
f 297/5/4 294/5/4 299/5/4
f 298/2/4 297/2/4 299/2/4
f 299/5/4 294/5/4 300/5/4
f 300/5/4 294/5/4 301/5/4
f 298/5/4 299/5/4 302/5/4
f 299/5/4 300/5/4 302/5/4
f 300/4/4 301/4/4 303/4/4
f 302/5/4 300/5/4 303/5/4
f 301/5/4 294/5/4 304/5/4
f 303/4/4 301/4/4 304/4/4
f 304/5/4 294/5/4 305/5/4
f 295/5/4 298/5/4 306/5/4
f 298/5/4 302/5/4 306/5/4
f 302/4/4 303/4/4 307/4/4
f 306/5/4 302/5/4 307/5/4
f 303/5/4 304/5/4 308/5/4
f 307/4/4 303/4/4 308/4/4
f 304/4/4 305/4/4 309/4/4
f 308/5/4 304/5/4 309/5/4
f 309/4/4 305/4/4 310/4/4
f 295/5/4 306/5/4 311/5/4
f 306/1/4 307/1/4 311/1/4
f 311/1/4 307/1/4 312/1/4
f 307/5/4 308/5/4 313/5/4
f 312/1/4 307/1/4 313/1/4
f 308/4/4 309/4/4 314/4/4
f 313/5/4 308/5/4 314/5/4
f 309/5/4 310/5/4 315/5/4
f 314/4/4 309/4/4 315/4/4
f 311/2/4 312/2/4 316/2/4
f 295/5/4 311/5/4 316/5/4
f 313/5/4 314/5/4 317/5/4
f 316/2/4 312/2/4 317/2/4
f 312/5/4 313/5/4 317/5/4
f 314/5/4 315/5/4 317/5/4
f 295/5/4 316/5/4 318/5/4
f 316/5/4 317/5/4 318/5/4
f 318/5/4 317/5/4 319/5/4
f 315/5/4 310/5/4 320/5/4
f 319/5/4 317/5/4 320/5/4
f 317/5/4 315/5/4 320/5/4
f 320/5/4 310/5/4 321/5/4
f 319/5/4 320/5/4 322/5/4
f 322/5/4 320/5/4 323/5/4
f 328/5/5 325/5/5 324/5/5
f 329/1/5 326/1/5 325/1/5
f 329/5/5 325/5/5 328/5/5
f 330/1/5 326/1/5 329/1/5
f 331/5/5 327/5/5 326/5/5
f 331/1/5 326/1/5 330/1/5
f 332/5/5 328/5/5 324/5/5
f 333/1/5 330/1/5 329/1/5
f 333/5/5 328/5/5 332/5/5
f 333/1/5 329/1/5 328/1/5
f 334/1/5 330/1/5 333/1/5
f 335/5/5 331/5/5 330/5/5
f 335/1/5 330/1/5 334/1/5
f 336/5/5 327/5/5 331/5/5
f 336/5/5 331/5/5 335/5/5
f 337/5/5 327/5/5 336/5/5
f 338/1/5 334/1/5 333/1/5
f 338/1/5 333/1/5 332/1/5
f 339/5/5 335/5/5 334/5/5
f 339/1/5 334/1/5 338/1/5
f 339/5/5 336/5/5 335/5/5
f 340/5/5 332/5/5 324/5/5
f 341/1/5 338/1/5 332/1/5
f 341/5/5 332/5/5 340/5/5
f 342/5/5 339/5/5 338/5/5
f 342/1/5 338/1/5 341/1/5
f 343/1/5 341/1/5 340/1/5
f 344/5/5 342/5/5 341/5/5
f 344/1/5 341/1/5 343/1/5
f 345/5/5 336/5/5 339/5/5
f 345/5/5 342/5/5 344/5/5
f 345/1/5 337/1/5 336/1/5
f 345/5/5 339/5/5 342/5/5
f 346/1/5 337/1/5 345/1/5
f 347/5/5 344/5/5 343/5/5
f 347/5/5 345/5/5 344/5/5
f 347/5/5 346/5/5 345/5/5
f 348/5/5 346/5/5 347/5/5
f 349/1/5 348/1/5 347/1/5
f 350/5/5 346/5/5 348/5/5
f 350/1/5 348/1/5 349/1/5
f 351/5/5 346/5/5 350/5/5
f 356/5/5 353/5/5 352/5/5
f 357/5/5 353/5/5 356/5/5
f 358/1/5 354/1/5 353/1/5
f 358/5/5 353/5/5 357/5/5
f 359/1/5 354/1/5 358/1/5
f 360/1/5 354/1/5 359/1/5
f 362/5/5 361/5/5 360/5/5
f 363/5/5 361/5/5 362/5/5
f 364/1/5 363/1/5 362/1/5
f 365/1/5 363/1/5 364/1/5
f 366/5/5 356/5/5 355/5/5
f 367/5/5 366/5/5 355/5/5
f 368/5/5 366/5/5 367/5/5
f 369/5/5 365/5/5 364/5/5
f 370/1/5 368/1/5 367/1/5
f 371/1/5 370/1/5 367/1/5
f 372/1/5 370/1/5 371/1/5
f 373/5/5 365/5/5 369/5/5
f 374/5/5 365/5/5 373/5/5
f 379/5/5 376/5/5 375/5/5
f 380/5/5 376/5/5 379/5/5
f 381/5/5 378/5/5 377/5/5
f 382/5/5 378/5/5 381/5/5
f 387/5/5 384/5/5 383/5/5
f 388/5/5 384/5/5 387/5/5
f 389/5/5 386/5/5 385/5/5
f 390/5/5 386/5/5 389/5/5
f 391/5/5 387/5/5 383/5/5
f 392/5/5 387/5/5 391/5/5
f 393/5/5 386/5/5 390/5/5
f 394/5/5 386/5/5 393/5/5
f 399/5/5 396/5/5 395/5/5
f 404/5/5 398/5/5 397/5/5
f 405/5/5 399/5/5 395/5/5
f 405/5/5 400/5/5 399/5/5
f 405/5/5 401/5/5 400/5/5
f 406/5/5 401/5/5 405/5/5
f 407/5/5 403/5/5 402/5/5
f 407/5/5 404/5/5 403/5/5
f 408/5/5 398/5/5 404/5/5
f 408/5/5 404/5/5 407/5/5
f 409/5/6 410/5/6 413/5/6
f 413/5/6 410/5/6 414/5/6
f 411/5/6 412/5/6 415/5/6
f 415/5/6 412/5/6 416/5/6
f 417/5/6 418/5/6 422/5/6
f 419/5/6 420/5/6 423/5/6
f 421/5/6 422/5/6 425/5/6
f 422/5/6 418/5/6 426/5/6
f 425/5/6 422/5/6 426/5/6
f 423/5/6 424/5/6 427/5/6
f 419/5/6 423/5/6 427/5/6
f 427/5/6 424/5/6 428/5/6
f 429/1/6 430/1/6 434/1/6
f 434/1/6 430/1/6 435/1/6
f 431/5/6 432/5/6 436/5/6
f 436/5/6 432/5/6 437/5/6
f 433/5/6 434/5/6 439/5/6
f 439/5/6 434/5/6 440/5/6
f 437/5/6 438/5/6 441/5/6
f 441/5/6 438/5/6 442/5/6
f 443/5/6 444/5/6 447/5/6
f 447/5/6 444/5/6 448/5/6
f 445/5/6 446/5/6 449/5/6
f 449/5/6 446/5/6 450/5/6
f 451/1/6 452/1/6 457/1/6
f 452/5/6 453/5/6 458/5/6
f 457/1/6 452/1/6 458/1/6
f 453/1/6 454/1/6 459/1/6
f 458/5/6 453/5/6 459/5/6
f 454/5/6 455/5/6 460/5/6
f 459/1/6 454/1/6 460/1/6
f 460/5/6 455/5/6 461/5/6
f 456/5/6 457/5/6 464/5/6
f 464/5/6 457/5/6 465/5/6
f 461/5/6 462/5/6 466/5/6
f 466/5/6 462/5/6 467/5/6
f 463/5/6 464/5/6 469/5/6
f 467/5/6 468/5/6 472/5/6
f 469/5/6 470/5/6 473/5/6
f 463/5/6 469/5/6 473/5/6
f 473/5/6 470/5/6 474/5/6
f 474/5/6 470/5/6 475/5/6
f 471/5/6 472/5/6 478/5/6
f 472/5/6 468/5/6 479/5/6
f 478/5/6 472/5/6 479/5/6
f 479/5/6 468/5/6 480/5/6
f 474/5/6 475/5/6 481/5/6
f 475/5/6 476/5/6 481/5/6
f 476/4/6 477/4/6 482/4/6
f 481/5/6 476/5/6 482/5/6
f 477/5/6 478/5/6 483/5/6
f 482/4/6 477/4/6 483/4/6
f 478/5/6 479/5/6 483/5/6
f 483/5/6 479/5/6 484/5/6
f 485/5/6 486/5/6 488/5/6
f 488/5/6 486/5/6 489/5/6
f 487/5/6 488/5/6 491/5/6
f 489/5/6 490/5/6 491/5/6
f 488/5/6 489/5/6 491/5/6
f 491/5/6 490/5/6 492/5/6
f 492/5/6 490/5/6 493/5/6
f 493/5/6 490/5/6 494/5/6
f 492/5/6 493/5/6 495/5/6
f 495/5/6 493/5/6 496/5/6
